<?xml version="1.0" encoding="utf-8"?>
<!-- Generator: Adobe Illustrator 19.2.0, SVG Export Plug-In . SVG Version: 6.00 Build 0)  -->
<svg version="1.1" id="Ebene_3_xA0_Bild_1_" xmlns="http://www.w3.org/2000/svg" xmlns:xlink="http://www.w3.org/1999/xlink"
	 x="0px" y="0px" viewBox="0 0 307.2 245.8" style="enable-background:new 0 0 307.2 245.8;" xml:space="preserve">
<style type="text/css">
	.st0{fill:#456601;}
	.st1{opacity:0.55;fill:#7EB314;}
	.st2{fill:#F8F8F8;}
</style>
<circle class="st0" cx="152.3" cy="125.2" r="85"/>
<circle class="st1" cx="159.5" cy="118.6" r="85"/>
<g>
	<path class="st2" d="M158.6,47.8c1.7,0.4,3.5,0.6,5.1,1.2c7.8,2.9,12.4,8.6,13.8,16.8c0,0.1,0,0.2,0,0.3c0,0.1,0,0.2,0,0.3
		c-2.2,0-4.4,0-6.5,0c-0.4-1.2-0.8-2.5-1.3-3.7c-2.5-5.5-8.2-8.9-14.5-8.3c-6.5,0.7-11.5,5.4-12.7,11.7c-1.5,7.9,4.1,15.7,12,16.8
		c2.9,0.4,5.9,0.8,8.7,1.6c7.8,2.3,12.4,7.7,14.1,15.6c0,0.1,0,0.3,0,0.5c-2.2,0-4.4,0-6.6,0c-0.1-0.2-0.1-0.4-0.2-0.6
		c-1.7-5.6-5.5-9-11.1-10.2c-0.8-0.2-1.6-0.1-2.4-0.1c-8.2-0.2-14.5-3.7-18.6-10.9c-5.3-9.5-2.3-21.5,6.8-27.5
		c2.8-1.8,5.8-2.9,9.1-3.3c0.2,0,0.4-0.1,0.6-0.1C156.2,47.8,157.4,47.8,158.6,47.8z"/>
	<path class="st2" d="M160.6,124.5c0,8.3,0,16.6,0,25c-2.2,0-4.3,0-6.5,0c0-8.3,0-16.5,0-24.7c-10.6-2.2-16.7-8.6-18.3-19.4
		c2.3,0,4.4,0,6.5,0c0.2,0.8,0.3,1.5,0.5,2.3c1.8,6.6,7.9,10.8,15,10.4c6.3-0.3,12-5.6,13-12c0-0.2,0.3-0.6,0.5-0.6
		c2.1,0,4.1,0,6.2,0C177.3,112.5,171.8,122.2,160.6,124.5z"/>
	<path class="st2" d="M164.2,195.2c0-2.2,0-4.3,0-6.4c1-0.2,2-0.4,2.9-0.7c6.3-2,10.3-8.1,9.8-14.9c-0.5-6.4-5.6-11.9-12-12.9
		c-0.2,0-0.6-0.4-0.6-0.6c0-2,0-4,0-6.2c4.4,0.3,8.3,1.9,11.7,4.7c4.6,3.8,7.2,8.8,7.6,14.8C184.4,185.4,174.7,194.6,164.2,195.2z"
		/>
	<path class="st2" d="M154.2,153.3c2.2,0,4.2,0,6.4,0c0,14,0,28,0,42.1c-2.1,0-4.2,0-6.4,0C154.2,181.4,154.2,167.4,154.2,153.3z"/>
</g>
</svg>
